<svg width="26" height="25" viewBox="0 0 26 25" fill="none" xmlns="http://www.w3.org/2000/svg">
<g clip-path="url(#clip0_1_1046)">
<path d="M1.43562 24.5966C1.20503 24.5966 1.0513 24.5197 0.897579 24.366C0.59013 24.0585 0.59013 23.5973 0.897579 23.2899L8.1995 15.988C8.50695 15.6805 8.96812 15.6805 9.27557 15.988C9.58302 16.2954 9.58302 16.7566 9.27557 17.0641L1.97365 24.366C1.81993 24.5197 1.6662 24.5966 1.43562 24.5966ZM19.3445 7.30254H18.7296C18.3453 7.30254 18.0379 6.99509 18.0379 6.61078C17.8841 4.5355 18.4222 2.76766 19.5751 1.61473C20.7281 0.461796 22.4959 -0.0762396 24.5712 0.077485C24.9555 0.077485 25.2629 0.384934 25.2629 0.769246C25.4166 2.84453 24.8786 4.61236 23.7257 5.76529C22.6496 6.7645 21.1124 7.30254 19.3445 7.30254Z" fill="#AEF3A0"/>
<path d="M20.4207 11.5291C18.8835 11.5291 17.3462 10.8374 15.8859 9.37697C15.7321 9.22324 15.6553 8.99266 15.6553 8.83893C15.6553 8.68521 15.7321 8.45462 15.8859 8.3009C18.8835 5.45699 22.0348 5.45699 25.0325 8.3009C25.1862 8.45462 25.2631 8.68521 25.2631 8.83893C25.2631 9.06952 25.1862 9.22324 25.0325 9.37697C23.4952 10.8374 21.958 11.5291 20.4207 11.5291Z" fill="#4FE531"/>
<path d="M16.4239 9.60779C16.1933 9.60779 16.0396 9.53092 15.8859 9.3772C13.042 6.37957 13.042 3.22822 15.8859 0.230587C16.0396 0.0768623 16.1933 0 16.4239 0C16.6545 0 16.8082 0.0768623 16.9619 0.230587C19.8058 3.22822 19.8058 6.37957 16.9619 9.3772C16.8082 9.53092 16.6545 9.60779 16.4239 9.60779Z" fill="#4FE531"/>
<path d="M16.578 15.3719C15.0407 15.3719 13.5035 14.6801 12.0431 13.2197C11.8894 13.066 11.8125 12.8354 11.8125 12.6817C11.8125 12.528 11.8894 12.2974 12.0431 12.1437C15.0407 9.29977 18.1921 9.29977 21.1897 12.1437C21.3434 12.2974 21.4203 12.528 21.4203 12.6817C21.4203 12.9123 21.3434 13.066 21.1897 13.2197C19.6525 14.6801 18.1152 15.3719 16.578 15.3719Z" fill="#AEF3A0"/>
<path d="M12.5811 13.4506C12.3505 13.4506 12.1968 13.3737 12.0431 13.22C9.19918 10.2223 9.19918 7.07099 12.0431 4.07336C12.1968 3.91964 12.3505 3.84277 12.5811 3.84277C12.8117 3.84277 12.9654 3.91964 13.1192 4.07336C15.9631 7.07099 15.9631 10.2223 13.1192 13.22C12.9654 13.3737 12.8117 13.4506 12.5811 13.4506Z" fill="#AEF3A0"/>
<path d="M12.7352 19.2156C11.1979 19.2156 9.6607 18.5239 8.20031 17.0635C8.04659 16.9098 7.96973 16.6792 7.96973 16.5255C7.96973 16.3717 8.04659 16.1411 8.20031 15.9874C11.1979 13.1435 14.3493 13.1435 17.3469 15.9874C17.5007 16.1411 17.5775 16.3717 17.5775 16.5255C17.5775 16.756 17.5007 16.9098 17.3469 17.0635C15.8097 18.5239 14.2724 19.2156 12.7352 19.2156Z" fill="#4FE531"/>
<path d="M8.73835 17.2943C8.50776 17.2943 8.35404 17.2174 8.20031 17.0637C5.35641 14.0661 5.35641 10.9147 8.20031 7.91711C8.35404 7.76339 8.58462 7.68652 8.73835 7.68652C8.96893 7.68652 9.12266 7.76339 9.27638 7.91711C12.1203 10.9147 12.1203 14.0661 9.27638 17.0637C9.12266 17.2174 8.96893 17.2943 8.73835 17.2943Z" fill="#4FE531"/>
</g>
<defs>
<clipPath id="clip0_1_1046">
<rect width="26" height="25" fill="white"/>
</clipPath>
</defs>
</svg>
