<svg width="19" height="22" viewBox="0 0 19 22" fill="none" xmlns="http://www.w3.org/2000/svg">
<g clip-path="url(#clip0_1_1056)">
<path d="M18.3906 8.64364C18.3906 4.32357 13.45 0 13.45 0C13.45 0 10.639 2.46062 9.25568 5.52242C8.00862 4.05793 6.97622 3.14568 6.97622 3.14568C6.97622 3.14568 0.332031 9.01763 0.332031 14.8931C0.332031 19.8632 3.71886 21.6703 6.97622 21.6703C10.2336 21.6703 13.6204 19.8632 13.6204 14.8931C13.6204 14.236 13.45 13.6313 13.45 13.6313C15.8726 13.6313 18.3906 12.3031 18.3906 8.64364Z" fill="#F7A539"/>
<path d="M18.6531 8.91383C18.6531 12.6182 16.0534 13.9627 13.5521 13.9627C11.0509 13.9627 8.4511 12.6182 8.4511 8.91383C8.4511 7.83824 8.75716 6.76619 9.22153 5.75429C10.6498 2.6549 13.5521 0.164062 13.5521 0.164062C13.5521 0.164062 18.6531 4.54071 18.6531 8.91383ZM3.9112 19.6538C3.89159 19.6959 3.88041 19.7414 3.8783 19.7878C3.87619 19.8342 3.88319 19.8806 3.8989 19.9243C3.91461 19.968 3.93873 20.0082 3.96988 20.0425C4.00102 20.0768 4.03858 20.1046 4.08042 20.1244C4.86984 20.4966 5.80772 20.6851 6.86803 20.6851C10.1443 20.6851 12.1263 18.8871 12.3061 15.7523C12.3087 15.7059 12.3023 15.6594 12.2871 15.6156C12.2719 15.5717 12.2482 15.5312 12.2175 15.4965C12.1867 15.4618 12.1495 15.4336 12.1079 15.4133C12.0663 15.3931 12.0211 15.3813 11.975 15.3787C11.882 15.374 11.791 15.4063 11.7215 15.4686C11.652 15.5309 11.6096 15.6182 11.6035 15.7116C11.4012 19.2377 8.91652 19.9779 6.86803 19.9779C5.9115 19.9779 5.07388 19.8116 4.37874 19.484C4.29423 19.4443 4.19754 19.44 4.10985 19.4719C4.02215 19.5038 3.95095 19.569 3.9112 19.6538Z" fill="#FFCC3E"/>
<path d="M9.79226 15.8897C9.59016 16.4873 9.10442 17.2821 7.2288 17.2821C6.59832 17.2821 6.04489 17.179 5.62812 16.9836C5.55071 16.9474 5.46206 16.9433 5.38166 16.9724C5.30127 17.0015 5.23572 17.0613 5.19943 17.1387C5.16314 17.2161 5.15908 17.3047 5.18816 17.3851C5.21724 17.4655 5.27706 17.5311 5.35447 17.5674C5.85633 17.8024 6.50421 17.9264 7.22847 17.9264C8.92391 17.9264 9.99178 17.3105 10.4024 16.0956C10.4298 16.0146 10.4239 15.9261 10.386 15.8494C10.3481 15.7728 10.2813 15.7143 10.2003 15.6869C10.1193 15.6595 10.0308 15.6654 9.95412 15.7033C9.87747 15.7412 9.81966 15.8087 9.79226 15.8897Z" fill="#FFCC3E"/>
<path d="M13.5422 12.1156C15.1336 11.9848 16.7391 10.9127 16.7391 8.81274C16.7391 8.21257 16.5956 7.55084 16.313 6.84591C16.2972 6.80663 16.2739 6.77083 16.2443 6.74057C16.2147 6.7103 16.1795 6.68616 16.1406 6.66952C16.1017 6.65287 16.0599 6.64406 16.0175 6.64358C15.9752 6.64309 15.9332 6.65095 15.8939 6.66669C15.8547 6.68244 15.8189 6.70577 15.7886 6.73535C15.7583 6.76493 15.7342 6.80018 15.7176 6.83909C15.7009 6.878 15.6921 6.91981 15.6916 6.96212C15.6911 7.00444 15.699 7.04644 15.7147 7.08572C15.9668 7.71393 16.0944 8.29509 16.0944 8.81274C16.0944 10.6181 14.691 11.3743 13.4894 11.4729C13.4472 11.4764 13.4061 11.4881 13.3684 11.5075C13.3307 11.5268 13.2972 11.5534 13.2699 11.5857C13.2425 11.618 13.2217 11.6554 13.2088 11.6957C13.1958 11.736 13.191 11.7785 13.1945 11.8207C13.2083 11.989 13.3392 12.1259 13.5422 12.1156Z" fill="#F7A539"/>
<path d="M15.4503 6.00012C15.6283 6.00012 15.7726 5.85581 15.7726 5.6778C15.7726 5.49978 15.6283 5.35547 15.4503 5.35547C15.2722 5.35547 15.1279 5.49978 15.1279 5.6778C15.1279 5.85581 15.2722 6.00012 15.4503 6.00012Z" fill="#F7A539"/>
<path d="M10.2911 15.0245C10.4691 15.0245 10.6134 14.8802 10.6134 14.7022C10.6134 14.5242 10.4691 14.3799 10.2911 14.3799C10.1131 14.3799 9.96875 14.5242 9.96875 14.7022C9.96875 14.8802 10.1131 15.0245 10.2911 15.0245Z" fill="#FFCC3E"/>
</g>
<defs>
<clipPath id="clip0_1_1056">
<rect width="19" height="22" fill="white"/>
</clipPath>
</defs>
</svg>
