<svg width="21" height="26" viewBox="0 0 21 26" fill="none" xmlns="http://www.w3.org/2000/svg">
<g clip-path="url(#clip0_1_1063)">
<path d="M6.3252 0.83301C10.6703 -0.0385787 15.8359 5.77607 16.0996 9.72949C16.1792 10.9204 16.0379 12.1621 15.6758 13.2998C15.6293 13.337 15.9429 13.4097 15.9863 13.373C17.3537 11.916 18.7602 10.0448 17.207 6.7168C20.7574 10.6005 24.6407 25.2536 10.1631 25.2539C-1.21081 25.2539 -2.65387 11.5987 7.44336 7.49316C5.66814 9.04658 4.11416 13.8175 5.64844 16.2441C3.89024 11.0726 13.2656 8.17023 9.85938 2.85547C9.14744 1.74473 7.61438 0.913289 6.3252 0.83301ZM13.3213 8.49219C13.8761 13.0409 7.03566 11.6153 7.44043 19.8086C5.33252 19.0319 4.1125 17.8113 3.55762 14.9268C2.22605 19.2534 5.11045 24.4685 10.8799 24.4688C16.6496 24.4688 18.6727 19.0654 18.4248 15.3711C17.2045 18.9213 14.4307 17.4796 12.2119 18.8105C13.654 16.1478 15.0964 12.8191 13.3213 8.49219ZM6.3252 0.83301C6.32265 0.83352 6.31993 0.834448 6.31738 0.834963C6.23434 0.836691 6.23543 0.836129 6.32031 0.83301C6.32186 0.833104 6.32365 0.832913 6.3252 0.83301Z" fill="#F2641B"/>
<path fill-rule="evenodd" clip-rule="evenodd" d="M10.8611 4.42188C14.08 7.32272 15.9034 10.9239 13.6502 16.3252C14.6813 16.4709 18.1562 13.325 17.9422 11.2246C19.4142 13.3193 19.9346 19.1157 16.2723 22.1387C17.9471 20.2336 18.5704 17.5154 18.4265 15.3711C17.2063 18.9213 14.4325 17.4796 12.2137 18.8105C13.6558 16.1478 15.0982 12.8191 13.323 8.49219C13.8779 13.0409 7.0374 11.6153 7.44217 19.8086C5.33427 19.0319 4.11425 17.8113 3.55936 14.9268C2.52694 18.2814 4.02981 22.1681 7.44608 23.7461C0.407997 22.1635 0.303808 14.2723 5.81717 10.124C3.88572 12.3247 2.70655 15.4254 6.46171 18.3262C5.06669 10.5237 15.1532 11.524 10.8611 4.42188Z" fill="#FF8E1D"/>
</g>
<defs>
<clipPath id="clip0_1_1063">
<rect width="21" height="26" fill="white"/>
</clipPath>
</defs>
</svg>
