<svg width="19" height="22" viewBox="0 0 19 22" fill="none" xmlns="http://www.w3.org/2000/svg">
<g clip-path="url(#clip0_1_1106)">
<path d="M7.22971 18.4792C9.95212 17.2927 7.74435 14.174 11.62 12.3361C15.0531 10.708 18.6423 10.2131 18.0099 5.27279C17.3815 0.363371 8.57832 -2.30694 3.38699 2.62129C-2.02123 7.7554 1.02431 21.1836 7.22971 18.4792Z" fill="#FF7B8B"/>
<path d="M6.8893 17.2176C8.2681 16.6198 7.66242 12.2794 11.2346 11.0262C14.532 9.86942 17.158 8.4404 16.9898 5.76C16.7612 2.1168 8.79274 -0.698132 4.28225 3.72517C-0.117655 8.03999 2.00213 19.3365 6.8893 17.2176Z" fill="#FF4755"/>
<path d="M11.62 12.3364C7.74438 14.1744 9.95214 17.293 7.22974 18.4795C3.27494 20.2031 0.60388 15.3741 0.58631 10.3155L0.592966 12.4181L0.594495 12.4177C0.6568 17.0102 3.04825 21.6115 7.1767 21.1338C10.0919 20.7964 9.93614 15.7697 11.62 14.7451C14.6343 12.9108 18.1054 12.6516 18.079 8.66757L18.0798 6.55469C17.9679 10.3166 14.73 10.8616 11.62 12.3364Z" fill="#994E37"/>
<path d="M11.2365 13.9785C9.03142 15.4904 9.70845 20.0299 6.79322 20.3672C4.49587 20.6331 2.73676 19.3257 1.61719 17.3228C2.69612 19.7484 4.59732 21.4322 7.17647 21.1337C10.0917 20.7964 9.93592 15.7697 11.6198 14.745C14.6341 12.9107 18.1052 12.6516 18.0788 8.66757L18.0796 6.55469C18.0827 11.8651 14.1467 11.9832 11.2365 13.9785Z" fill="#8C4534"/>
<path d="M9.72013 7.22181C10.703 7.22181 11.4998 6.70214 11.4998 6.0611C11.4998 5.42006 10.703 4.90039 9.72013 4.90039C8.73723 4.90039 7.94043 5.42006 7.94043 6.0611C7.94043 6.70214 8.73723 7.22181 9.72013 7.22181Z" fill="#F4E9D3"/>
<path d="M9.72013 6.45422C8.94321 6.45422 8.28296 6.12942 8.04019 5.67676C7.97582 5.79678 7.94043 5.92564 7.94043 6.06001C7.94043 6.70103 8.73724 7.22072 9.72017 7.22072C10.7031 7.22072 11.4999 6.70107 11.4999 6.06001C11.4999 5.92564 11.4645 5.79678 11.4001 5.67676C11.1573 6.12942 10.497 6.45422 9.72013 6.45422Z" fill="#E5D6BE"/>
</g>
<defs>
<clipPath id="clip0_1_1106">
<rect width="19" height="22" fill="white"/>
</clipPath>
</defs>
</svg>
